<mxfile host="Electron" agent="Mozilla/5.0 (Windows NT 10.0; Win64; x64) AppleWebKit/537.36 (KHTML, like Gecko) draw.io/25.0.2 Chrome/128.0.6613.186 Electron/32.2.5 Safari/537.36" version="25.0.2">
  <diagram name="Page-1" id="2YBvvXClWsGukQMizWep">
    <mxGraphModel dx="1379" dy="681" grid="1" gridSize="10" guides="1" tooltips="1" connect="1" arrows="1" fold="1" page="1" pageScale="1" pageWidth="850" pageHeight="1100" math="0" shadow="0">
      <root>
        <mxCell id="0" />
        <mxCell id="1" parent="0" />
        <mxCell id="l79wG4PMJ3DYlHp3x_tb-1" value="" style="shape=umlLifeline;perimeter=lifelinePerimeter;whiteSpace=wrap;html=1;container=1;dropTarget=0;collapsible=0;recursiveResize=0;outlineConnect=0;portConstraint=eastwest;newEdgeStyle={&quot;curved&quot;:0,&quot;rounded&quot;:0};participant=umlActor;" vertex="1" parent="1">
          <mxGeometry x="40" y="40" width="20" height="300" as="geometry" />
        </mxCell>
        <mxCell id="l79wG4PMJ3DYlHp3x_tb-4" value="" style="html=1;points=[[0,0,0,0,5],[0,1,0,0,-5],[1,0,0,0,5],[1,1,0,0,-5]];perimeter=orthogonalPerimeter;outlineConnect=0;targetShapes=umlLifeline;portConstraint=eastwest;newEdgeStyle={&quot;curved&quot;:0,&quot;rounded&quot;:0};" vertex="1" parent="l79wG4PMJ3DYlHp3x_tb-1">
          <mxGeometry x="5" y="60" width="10" height="230" as="geometry" />
        </mxCell>
        <mxCell id="l79wG4PMJ3DYlHp3x_tb-2" value="Utente Recensore" style="text;html=1;align=center;verticalAlign=middle;whiteSpace=wrap;rounded=0;" vertex="1" parent="1">
          <mxGeometry x="20" y="10" width="60" height="30" as="geometry" />
        </mxCell>
        <mxCell id="l79wG4PMJ3DYlHp3x_tb-3" value=":Film_Boundary" style="shape=umlLifeline;perimeter=lifelinePerimeter;whiteSpace=wrap;html=1;container=1;dropTarget=0;collapsible=0;recursiveResize=0;outlineConnect=0;portConstraint=eastwest;newEdgeStyle={&quot;curved&quot;:0,&quot;rounded&quot;:0};" vertex="1" parent="1">
          <mxGeometry x="210" y="40" width="100" height="440" as="geometry" />
        </mxCell>
        <mxCell id="l79wG4PMJ3DYlHp3x_tb-5" value="" style="html=1;points=[[0,0,0,0,5],[0,1,0,0,-5],[1,0,0,0,5],[1,1,0,0,-5]];perimeter=orthogonalPerimeter;outlineConnect=0;targetShapes=umlLifeline;portConstraint=eastwest;newEdgeStyle={&quot;curved&quot;:0,&quot;rounded&quot;:0};" vertex="1" parent="l79wG4PMJ3DYlHp3x_tb-3">
          <mxGeometry x="45" y="60" width="10" height="340" as="geometry" />
        </mxCell>
        <mxCell id="l79wG4PMJ3DYlHp3x_tb-11" value="" style="html=1;points=[[0,0,0,0,5],[0,1,0,0,-5],[1,0,0,0,5],[1,1,0,0,-5]];perimeter=orthogonalPerimeter;outlineConnect=0;targetShapes=umlLifeline;portConstraint=eastwest;newEdgeStyle={&quot;curved&quot;:0,&quot;rounded&quot;:0};" vertex="1" parent="l79wG4PMJ3DYlHp3x_tb-3">
          <mxGeometry x="55" y="110" width="10" height="110" as="geometry" />
        </mxCell>
        <mxCell id="l79wG4PMJ3DYlHp3x_tb-12" value="Apparizione Form Recensione" style="html=1;align=left;spacingLeft=2;endArrow=block;rounded=0;edgeStyle=orthogonalEdgeStyle;curved=0;rounded=0;" edge="1" target="l79wG4PMJ3DYlHp3x_tb-11" parent="l79wG4PMJ3DYlHp3x_tb-3" source="l79wG4PMJ3DYlHp3x_tb-5">
          <mxGeometry relative="1" as="geometry">
            <mxPoint x="60" y="90" as="sourcePoint" />
            <Array as="points">
              <mxPoint x="90" y="90" />
              <mxPoint x="90" y="130" />
            </Array>
          </mxGeometry>
        </mxCell>
        <mxCell id="l79wG4PMJ3DYlHp3x_tb-31" value="" style="shape=umlDestroy;whiteSpace=wrap;html=1;strokeWidth=3;targetShapes=umlLifeline;" vertex="1" parent="l79wG4PMJ3DYlHp3x_tb-3">
          <mxGeometry x="35" y="380" width="30" height="30" as="geometry" />
        </mxCell>
        <mxCell id="l79wG4PMJ3DYlHp3x_tb-6" value="clickScriviUnaRecensione()" style="html=1;verticalAlign=bottom;endArrow=block;curved=0;rounded=0;" edge="1" parent="1" target="l79wG4PMJ3DYlHp3x_tb-5">
          <mxGeometry width="80" relative="1" as="geometry">
            <mxPoint x="55" y="120" as="sourcePoint" />
            <mxPoint x="185" y="120" as="targetPoint" />
          </mxGeometry>
        </mxCell>
        <mxCell id="l79wG4PMJ3DYlHp3x_tb-7" value="film:Film" style="shape=umlLifeline;perimeter=lifelinePerimeter;whiteSpace=wrap;html=1;container=1;dropTarget=0;collapsible=0;recursiveResize=0;outlineConnect=0;portConstraint=eastwest;newEdgeStyle={&quot;curved&quot;:0,&quot;rounded&quot;:0};" vertex="1" parent="1">
          <mxGeometry x="770" y="40" width="100" height="440" as="geometry" />
        </mxCell>
        <mxCell id="l79wG4PMJ3DYlHp3x_tb-22" value="" style="html=1;points=[[0,0,0,0,5],[0,1,0,0,-5],[1,0,0,0,5],[1,1,0,0,-5]];perimeter=orthogonalPerimeter;outlineConnect=0;targetShapes=umlLifeline;portConstraint=eastwest;newEdgeStyle={&quot;curved&quot;:0,&quot;rounded&quot;:0};" vertex="1" parent="l79wG4PMJ3DYlHp3x_tb-7">
          <mxGeometry x="45" y="240" width="10" height="90" as="geometry" />
        </mxCell>
        <mxCell id="l79wG4PMJ3DYlHp3x_tb-8" value=":Film_Control" style="shape=umlLifeline;perimeter=lifelinePerimeter;whiteSpace=wrap;html=1;container=1;dropTarget=0;collapsible=0;recursiveResize=0;outlineConnect=0;portConstraint=eastwest;newEdgeStyle={&quot;curved&quot;:0,&quot;rounded&quot;:0};" vertex="1" parent="1">
          <mxGeometry x="510" y="40" width="100" height="400" as="geometry" />
        </mxCell>
        <mxCell id="l79wG4PMJ3DYlHp3x_tb-9" value="" style="html=1;points=[[0,0,0,0,5],[0,1,0,0,-5],[1,0,0,0,5],[1,1,0,0,-5]];perimeter=orthogonalPerimeter;outlineConnect=0;targetShapes=umlLifeline;portConstraint=eastwest;newEdgeStyle={&quot;curved&quot;:0,&quot;rounded&quot;:0};" vertex="1" parent="l79wG4PMJ3DYlHp3x_tb-8">
          <mxGeometry x="42.5" y="170" width="15" height="230" as="geometry" />
        </mxCell>
        <mxCell id="l79wG4PMJ3DYlHp3x_tb-17" value="verifica dei dati" style="html=1;align=left;spacingLeft=2;endArrow=block;rounded=0;edgeStyle=orthogonalEdgeStyle;curved=0;rounded=0;" edge="1" parent="l79wG4PMJ3DYlHp3x_tb-8">
          <mxGeometry relative="1" as="geometry">
            <mxPoint x="57.5" y="220" as="sourcePoint" />
            <Array as="points">
              <mxPoint x="90" y="220" />
              <mxPoint x="90" y="240" />
            </Array>
            <mxPoint x="57.5" y="240" as="targetPoint" />
          </mxGeometry>
        </mxCell>
        <mxCell id="l79wG4PMJ3DYlHp3x_tb-13" value="insert(titolo, descrizione, valutazione)" style="html=1;verticalAlign=bottom;endArrow=block;curved=0;rounded=0;" edge="1" parent="1" target="l79wG4PMJ3DYlHp3x_tb-11">
          <mxGeometry width="80" relative="1" as="geometry">
            <mxPoint x="55" y="190" as="sourcePoint" />
            <mxPoint x="245" y="190" as="targetPoint" />
          </mxGeometry>
        </mxCell>
        <mxCell id="l79wG4PMJ3DYlHp3x_tb-14" value="submit()" style="html=1;verticalAlign=bottom;endArrow=block;curved=0;rounded=0;" edge="1" parent="1" source="l79wG4PMJ3DYlHp3x_tb-4" target="l79wG4PMJ3DYlHp3x_tb-11">
          <mxGeometry width="80" relative="1" as="geometry">
            <mxPoint x="49.5" y="210" as="sourcePoint" />
            <mxPoint x="245" y="210" as="targetPoint" />
          </mxGeometry>
        </mxCell>
        <mxCell id="l79wG4PMJ3DYlHp3x_tb-15" value="newRecensione(film, titolo, descrizione, valutazione)" style="html=1;verticalAlign=bottom;endArrow=block;curved=0;rounded=0;" edge="1" parent="1" source="l79wG4PMJ3DYlHp3x_tb-11" target="l79wG4PMJ3DYlHp3x_tb-9">
          <mxGeometry width="80" relative="1" as="geometry">
            <mxPoint x="270" y="230" as="sourcePoint" />
            <mxPoint x="507.5" y="230" as="targetPoint" />
            <Array as="points">
              <mxPoint x="490" y="230" />
            </Array>
          </mxGeometry>
        </mxCell>
        <mxCell id="l79wG4PMJ3DYlHp3x_tb-21" value="RecensisciFilm(titolo, descrizione, valutazione)" style="html=1;verticalAlign=bottom;endArrow=block;curved=0;rounded=0;" edge="1" parent="1" target="l79wG4PMJ3DYlHp3x_tb-22">
          <mxGeometry width="80" relative="1" as="geometry">
            <mxPoint x="567.5" y="310" as="sourcePoint" />
            <mxPoint x="855" y="310" as="targetPoint" />
          </mxGeometry>
        </mxCell>
        <mxCell id="l79wG4PMJ3DYlHp3x_tb-23" value=":Film_Boundary" style="shape=umlLifeline;perimeter=lifelinePerimeter;whiteSpace=wrap;html=1;container=1;dropTarget=0;collapsible=0;recursiveResize=0;outlineConnect=0;portConstraint=eastwest;newEdgeStyle={&quot;curved&quot;:0,&quot;rounded&quot;:0};" vertex="1" parent="1">
          <mxGeometry x="880" y="380" width="100" height="320" as="geometry" />
        </mxCell>
        <mxCell id="l79wG4PMJ3DYlHp3x_tb-30" value="" style="html=1;points=[[0,0,0,0,5],[0,1,0,0,-5],[1,0,0,0,5],[1,1,0,0,-5]];perimeter=orthogonalPerimeter;outlineConnect=0;targetShapes=umlLifeline;portConstraint=eastwest;newEdgeStyle={&quot;curved&quot;:0,&quot;rounded&quot;:0};" vertex="1" parent="l79wG4PMJ3DYlHp3x_tb-23">
          <mxGeometry x="45" y="60" width="10" height="80" as="geometry" />
        </mxCell>
        <mxCell id="l79wG4PMJ3DYlHp3x_tb-25" value="GetRecensioni()" style="html=1;verticalAlign=bottom;endArrow=block;curved=0;rounded=0;" edge="1" parent="1">
          <mxGeometry width="80" relative="1" as="geometry">
            <mxPoint x="567.5" y="330" as="sourcePoint" />
            <mxPoint x="815" y="330" as="targetPoint" />
          </mxGeometry>
        </mxCell>
        <mxCell id="l79wG4PMJ3DYlHp3x_tb-26" value="recensioni" style="html=1;verticalAlign=bottom;endArrow=open;dashed=1;endSize=8;curved=0;rounded=0;" edge="1" parent="1">
          <mxGeometry relative="1" as="geometry">
            <mxPoint x="815" y="350" as="sourcePoint" />
            <mxPoint x="567.5" y="350" as="targetPoint" />
          </mxGeometry>
        </mxCell>
        <mxCell id="l79wG4PMJ3DYlHp3x_tb-28" value="createFillm(film,recensioni)" style="endArrow=open;endSize=12;dashed=1;html=1;rounded=0;" edge="1" parent="1">
          <mxGeometry y="10" width="160" relative="1" as="geometry">
            <mxPoint x="570" y="400" as="sourcePoint" />
            <mxPoint x="880" y="400" as="targetPoint" />
            <mxPoint as="offset" />
          </mxGeometry>
        </mxCell>
      </root>
    </mxGraphModel>
  </diagram>
</mxfile>
